<svg xmlns="http://www.w3.org/2000/svg" viewBox="0 0 48 60">
  <path d="M47 25H32.383c-.553 0-1-.447-1-1 0-.552.447-1 1-1H47c.553 0 1 .448 1 1 0 .553-.447 1-1 1zm-31.382 0H1c-.552 0-1-.447-1-1 0-.552.448-1 1-1h14.618c.552 0 1 .448 1 1 0 .553-.448 1-1 1zM24 48c-.552 0-1-.447-1-1V32.382c0-.553.448-1 1-1 .553 0 1 .447 1 1V47c0 .553-.447 1-1 1zm0-31.382c-.552 0-1-.448-1-1V1c0-.552.448-1 1-1 .553 0 1 .448 1 1v14.618c0 .552-.447 1-1 1zm16.262 24.646c-.256 0-.512-.098-.707-.293L29.219 30.633c-.391-.391-.391-1.023 0-1.414s1.023-.391 1.414 0l10.336 10.338c.391.391.391 1.023 0 1.414-.196.195-.451.293-.707.293zm-22.19-22.192c-.256 0-.512-.098-.707-.293L7.029 8.443c-.391-.391-.391-1.023 0-1.414s1.023-.391 1.414 0l10.336 10.336c.391.391.391 1.023 0 1.414-.196.195-.451.293-.707.293zM7.735 41.264c-.256 0-.512-.098-.707-.293-.391-.391-.391-1.023 0-1.414l10.337-10.338c.391-.391 1.023-.391 1.414 0s.391 1.023 0 1.414L8.442 40.971c-.195.195-.451.293-.707.293zm22.192-22.192c-.256 0-.512-.098-.707-.293-.391-.391-.391-1.023 0-1.414L39.557 7.029c.391-.391 1.023-.391 1.414 0s.391 1.023 0 1.414L30.634 18.779c-.196.195-.451.293-.707.293z"/>
  <path d="M24 33.382c-5.173 0-9.382-4.209-9.382-9.382s4.208-9.382 9.382-9.382c1.102 0 2.18.189 3.205.561 3.695 1.344 6.178 4.889 6.178 8.821 0 5.173-4.209 9.382-9.383 9.382zm0-16.764c-4.07 0-7.382 3.312-7.382 7.382S19.93 31.382 24 31.382c4.071 0 7.383-3.312 7.383-7.382 0-3.094-1.953-5.884-4.861-6.941-.805-.292-1.654-.441-2.522-.441z"/>
  <path d="M38.866 30.404c-.113 0-.229-.02-.342-.061l-6.817-2.479c-.519-.188-.787-.763-.598-1.281.188-.52.76-.785 1.281-.598l6.817 2.479c.519.188.787.763.598 1.281-.147.407-.531.659-.939.659zm-22.891-8.321c-.113 0-.229-.02-.342-.061l-6.842-2.487c-.519-.189-.787-.763-.598-1.282.189-.518.764-.787 1.282-.598l6.842 2.487c.519.189.787.763.598 1.282-.148.407-.531.659-.94.659zm2.621 17.783c-.113 0-.229-.02-.341-.061-.519-.188-.787-.762-.599-1.281l2.49-6.853c.189-.519.762-.785 1.281-.598.519.188.787.762.599 1.281l-2.49 6.853c-.147.407-.531.659-.94.659zm8.34-22.941c-.113 0-.229-.02-.342-.061-.519-.189-.787-.763-.598-1.282l2.469-6.792c.188-.519.761-.787 1.281-.598.519.189.787.763.598 1.282l-2.469 6.792c-.147.407-.531.659-.939.659zm3.754 22.407c-.377 0-.737-.214-.907-.577l-3.145-6.74c-.233-.501-.017-1.096.483-1.329.5-.232 1.096-.016 1.329.483l3.145 6.74c.233.501.017 1.096-.483 1.329-.136.064-.28.094-.422.094zM20.457 17.406c-.376 0-.737-.213-.907-.577l-3.147-6.739c-.233-.5-.017-1.096.483-1.33.502-.233 1.096-.017 1.33.483l3.147 6.739c.233.5.017 1.096-.483 1.33-.138.064-.282.094-.423.094zM9.667 31.689c-.376 0-.737-.214-.907-.577-.233-.5-.017-1.096.483-1.329l6.671-3.113c.5-.231 1.095-.017 1.329.483.233.5.017 1.096-.483 1.329l-6.671 3.113c-.137.064-.281.094-.422.094zm22.111-10.32c-.377 0-.737-.213-.907-.577-.233-.5-.018-1.095.483-1.329l6.555-3.06c.501-.234 1.095-.017 1.329.483.233.5.018 1.095-.483 1.329l-6.555 3.06c-.137.064-.28.094-.422.094z"/>
  <text display="none">
    Created by Creative Stall
  </text>
</svg>